<svg width="32" height="32" viewBox="0 0 32 32" fill="none" xmlns="http://www.w3.org/2000/svg">
<path d="M19.1713 23.4182C23.0293 23.0079 26.6666 21.0397 28.6693 17.7547C27.7208 25.8799 18.441 31.0154 10.8663 27.8624C10.1683 27.5727 9.56747 27.0906 9.15517 26.4708C7.45292 23.9117 6.89336 20.6554 7.69736 17.7002C9.99451 21.4959 14.6654 23.8226 19.1713 23.4182Z" fill="#F3B01C"/>
<path d="M8.01787 15.3122C6.47883 18.7828 6.41218 22.8461 8.299 26.19C1.65888 21.3152 1.73134 10.8834 8.21785 6.05741C8.81781 5.61136 9.5308 5.34662 10.2786 5.30632C13.3537 5.14804 16.4782 6.30777 18.6693 8.46895C14.2174 8.51212 9.88151 11.2949 8.01787 15.3122Z" fill="#8D2676"/>
<path d="M20.787 9.36247C18.5789 6.38597 15.1226 4.3596 11.3359 4.29795C18.6557 1.08601 27.6594 6.29349 28.6397 13.9926C28.7309 14.7073 28.6111 15.436 28.2834 16.0806C26.9158 18.7656 24.38 20.848 21.4167 21.6187C23.5879 17.7258 23.32 12.9696 20.787 9.36247Z" fill="#EE342F"/>
</svg>
