<svg width="64" height="64" viewBox="0 0 64 64" fill="none" xmlns="http://www.w3.org/2000/svg">
<g clip-path="url(#clip0_158_349)">
<path d="M38.6708 46.1704C46.3867 45.3498 53.6613 41.4133 57.6667 34.8434C55.7697 51.0938 37.2101 61.3648 22.0606 55.0588C20.6647 54.4793 19.4631 53.5151 18.6385 52.2756C15.234 47.1574 14.1148 40.6447 15.7228 34.7344C20.3171 42.3259 29.6589 46.9793 38.6708 46.1704Z" fill="#F3B01C"/>
<path d="M16.3639 29.9584C13.2858 36.8997 13.1525 45.0261 16.9261 51.7139C3.64588 41.9644 3.79081 21.1007 16.7638 11.4488C17.9637 10.5567 19.3897 10.0272 20.8853 9.94659C27.0356 9.62999 33.2844 11.9495 37.6667 16.2719C28.763 16.3582 20.0911 21.9237 16.3639 29.9584Z" fill="#8D2676"/>
<path d="M41.9021 18.0589C37.4858 12.1059 30.5734 8.05319 23 7.92988C37.6395 1.50601 55.6469 11.921 57.6074 27.3191C57.7899 28.7485 57.5503 30.206 56.8949 31.4952C54.1597 36.8652 49.088 41.0301 43.1616 42.5714C47.5039 34.7855 46.968 25.2731 41.9021 18.0589Z" fill="#EE342F"/>
</g>
<g clip-path="url(#clip1_158_349)">
<path d="M12.6511 6C13.6727 6.00005 14.6128 6.56983 15.1017 7.485L27.4505 30.6008C28.1441 31.8994 29.7387 32.3786 31.0118 31.6711C32.285 30.9631 32.7546 29.3367 32.0609 28.0378L22.5373 10.2097C21.5236 8.31248 22.8698 6 24.9877 6H54.205C56.2798 6 57.6296 8.22775 56.7019 10.1208L34.4962 55.4262C33.4675 57.5246 30.5325 57.5246 29.5039 55.4262L7.29822 10.1208C6.37036 8.22775 7.72002 6 9.79477 6H12.6511Z" fill="#FFBE98"/>
</g>
<defs>
<clipPath id="clip0_158_349">
<rect width="32" height="64" fill="white" transform="translate(32)"/>
</clipPath>
<clipPath id="clip1_158_349">
<rect width="32" height="64" fill="white"/>
</clipPath>
</defs>
</svg>
